<svg xmlns="http://www.w3.org/2000/svg" width="64" height="64" viewBox="0 0 64 64"><path fill="#CFD8DD" d="M2 2h60v60H2z"/><path fill="#FFF" d="M47 5h12v12H47zM33 5h12v12H33zM19 5h12v12H19zM5 5h12v12H5zM47 19h12v12H47zM33 19h12v12H33zM19 19h12v12H19zM5 19h12v12H5zM47 33h12v12H47zM33 33h12v12H33zM19 33h12v12H19zM5 33h12v12H5zM47 47h12v12H47zM33 47h12v12H33zM19 47h12v12H19zM5 47h12v12H5z"/><path fill="#E81C27" d="M6.835 59.795l-3.67-1.59 17.55-40.52 6.293 9.028 11.17-15.874 12.44 3.482 6.7-10.404 3.364 2.166-8.3 12.887-12.56-3.518-12.83 18.234-5.457-7.83z"/><path fill="#CFD8DD" d="M2 2v60h60V2H2zm57 57H5V5h54v54z"/></svg>