<svg xmlns="http://www.w3.org/2000/svg" xmlns:xlink="http://www.w3.org/1999/xlink" viewBox="0 0 913.74 961.47"><defs><style>.cls-1{fill:url(#linear-gradient);}.cls-2{fill:url(#linear-gradient-2);}.cls-3{fill:url(#linear-gradient-3);}.cls-4{fill:url(#linear-gradient-4);}.cls-5{fill:url(#linear-gradient-5);}.cls-6{fill:url(#linear-gradient-6);}.cls-7{fill:url(#linear-gradient-7);}.cls-8{fill:url(#linear-gradient-8);}.cls-9{fill:url(#linear-gradient-9);}.cls-10{fill:url(#linear-gradient-10);}.cls-11{fill:url(#linear-gradient-11);}.cls-12{fill:url(#linear-gradient-12);}.cls-13{fill:#ee2c52;}.cls-14{fill:#d31f3e;}.cls-15{fill:#eef8fa;}.cls-16{fill:#ddf0f4;}</style><linearGradient id="linear-gradient" x1="458.51" y1="36.87" x2="458.51" y2="48.8" gradientTransform="translate(416.17 500.85) rotate(-90)" gradientUnits="userSpaceOnUse"><stop offset="0" stop-color="#facf0a"/><stop offset="1" stop-color="#fab517"/></linearGradient><linearGradient id="linear-gradient-2" x1="457.77" y1="12" x2="459.27" y2="194.77" gradientTransform="matrix(1, 0, 0, 1, 0, 0)" xlink:href="#linear-gradient"/><linearGradient id="linear-gradient-3" x1="455.51" y1="442.89" x2="463.15" y2="837.35" gradientUnits="userSpaceOnUse"><stop offset="0" stop-color="#ea4834"/><stop offset="1" stop-color="#c02026"/></linearGradient><linearGradient id="linear-gradient-4" x1="486.31" y1="451.31" x2="351.26" y2="439.23" gradientTransform="translate(253.76 117.65) rotate(-6.45)" xlink:href="#linear-gradient"/><linearGradient id="linear-gradient-5" x1="-117.58" y1="383.05" x2="-252.63" y2="370.97" gradientTransform="matrix(-0.99, -0.11, -0.11, 0.99, 52.25, 117.65)" xlink:href="#linear-gradient"/><linearGradient id="linear-gradient-6" x1="613.18" y1="509.71" x2="470.34" y2="496.94" gradientTransform="matrix(1, 0, 0, 1, 0, 0)" xlink:href="#linear-gradient"/><linearGradient id="linear-gradient-7" x1="555.54" y1="509.71" x2="412.7" y2="496.94" gradientTransform="matrix(-1, 0, 0, 1, 856.1, 0)" xlink:href="#linear-gradient"/><linearGradient id="linear-gradient-8" x1="459.49" y1="151.96" x2="455.62" y2="313.77" gradientTransform="matrix(1, 0, 0, 1, 0, 0)" xlink:href="#linear-gradient"/><linearGradient id="linear-gradient-9" x1="460.64" y1="288.9" x2="447.84" y2="804" gradientTransform="matrix(1, 0, 0, 1, 0, 0)" xlink:href="#linear-gradient"/><linearGradient id="linear-gradient-10" x1="458.02" y1="764.18" x2="454.92" y2="963.92" gradientTransform="matrix(1, 0, 0, 1, 0, 0)" xlink:href="#linear-gradient"/><linearGradient id="linear-gradient-11" x1="457.09" y1="929.9" x2="456.49" y2="968.7" gradientTransform="matrix(1, 0, 0, 1, 0, 0)" xlink:href="#linear-gradient"/><linearGradient id="linear-gradient-12" x1="456.87" y1="723.07" x2="456.87" y2="742.94" gradientTransform="matrix(1, 0, 0, 1, 0, 0)" xlink:href="#linear-gradient"/></defs><g id="Layer_1" data-name="Layer 1"><rect class="cls-1" x="450.89" y="-5.16" width="15.25" height="95.01" transform="translate(500.85 -416.17) rotate(90)"/><rect class="cls-2" x="450.89" width="15.25" height="204.52"/><path class="cls-3" d="M777.44,375c-198.52-81-320.57,52-320.57,52s-122-133-320.57-52,14,454.53,72.52,475.2l248.05-20.13,248,20.13C763.42,829.57,976,456,777.44,375Z"/><path class="cls-4" d="M724.84,271.77c-42.54,4.81-78.35,34.34-102.3,78.57,14.26-10.86,30.35-17.76,47.79-19.73,74.18-8.38,144.58,75.58,157.23,187.54s-37.22,209.52-111.4,217.9a88.22,88.22,0,0,1-9.3.56c22.78,13.07,47.39,19.08,72.36,16.26,88-10,147.21-125.72,132.19-258.57S812.86,261.82,724.84,271.77Z"/><path class="cls-5" d="M188.9,271.77c42.54,4.81,78.35,34.34,102.3,78.57-14.26-10.86-30.35-17.76-47.79-19.73-74.18-8.38-144.58,75.58-157.23,187.54s37.22,209.52,111.4,217.9a88.22,88.22,0,0,0,9.3.56c-22.78,13.07-47.39,19.08-72.36,16.26-88-10-147.21-125.72-132.19-258.57S100.88,261.82,188.9,271.77Z"/><path class="cls-6" d="M575.61,250.31c-45.28,0-86.42,26.78-116.85,70.42,16.28-9.71,34-15.05,52.57-15.05,79,0,143,96.6,143,215.78s-64,215.78-143,215.78a97.34,97.34,0,0,1-9.84-.52c22.39,16.45,47.54,25.68,74.12,25.68,93.7,0,169.65-114.64,169.65-256S669.31,250.31,575.61,250.31Z"/><path class="cls-7" d="M338.13,250.31c45.28,0,86.42,26.78,116.85,70.42-16.28-9.71-34-15.05-52.57-15.05-79,0-143,96.6-143,215.78s64,215.78,143,215.78a97.34,97.34,0,0,0,9.84-.52c-22.4,16.45-47.54,25.68-74.12,25.68-93.7,0-169.65-114.64-169.65-256S244.43,250.31,338.13,250.31Z"/><circle class="cls-8" cx="458.51" cy="192.96" r="64.38"/><path class="cls-9" d="M561.33,395.39c-9.56-175-104.46-172.13-104.46-172.13S362,220.4,352.41,395.39,390.2,742.7,456.87,812.69C523.54,742.7,570.88,570.39,561.33,395.39Z"/><rect class="cls-10" x="100.46" y="725.8" width="712.82" height="224.7" rx="46.77"/><rect class="cls-11" x="81.3" y="927.06" width="751.14" height="34.41" rx="17.2"/><rect class="cls-12" x="81.3" y="719.14" width="751.14" height="34.41" rx="17.2"/><polygon class="cls-13" points="211.81 799.04 184 810.1 211.26 838.15 211.81 799.04"/><polygon class="cls-14" points="184 810.1 172.15 837.6 211.26 838.15 184 810.1"/><polygon class="cls-13" points="250.37 838.71 239.31 810.89 211.26 838.15 250.37 838.71"/><polygon class="cls-14" points="239.31 810.89 211.81 799.04 211.26 838.15 239.31 810.89"/><polygon class="cls-13" points="172.15 837.6 183.21 865.41 211.26 838.15 172.15 837.6"/><polygon class="cls-14" points="211.26 838.15 238.52 866.2 250.37 838.71 211.26 838.15"/><polygon class="cls-13" points="210.7 877.26 238.52 866.2 211.26 838.15 210.7 877.26"/><polygon class="cls-14" points="183.21 865.41 210.7 877.26 211.26 838.15 183.21 865.41"/><polygon class="cls-13" points="703.04 799.04 675.22 810.1 702.48 838.15 703.04 799.04"/><polygon class="cls-14" points="675.22 810.1 663.37 837.6 702.48 838.15 675.22 810.1"/><polygon class="cls-13" points="741.59 838.71 730.53 810.89 702.48 838.15 741.59 838.71"/><polygon class="cls-14" points="730.53 810.89 703.04 799.04 702.48 838.15 730.53 810.89"/><polygon class="cls-13" points="663.37 837.6 674.43 865.41 702.48 838.15 663.37 837.6"/><polygon class="cls-14" points="702.48 838.15 729.74 866.2 741.59 838.71 702.48 838.15"/><polygon class="cls-13" points="701.93 877.26 729.74 866.2 702.48 838.15 701.93 877.26"/><polygon class="cls-14" points="674.43 865.41 701.93 877.26 702.48 838.15 674.43 865.41"/><polygon class="cls-13" points="457.43 799.04 429.61 810.1 456.87 838.15 457.43 799.04"/><polygon class="cls-14" points="429.61 810.1 417.76 837.6 456.87 838.15 429.61 810.1"/><polygon class="cls-13" points="495.98 838.71 484.92 810.89 456.87 838.15 495.98 838.71"/><polygon class="cls-14" points="484.92 810.89 457.43 799.04 456.87 838.15 484.92 810.89"/><polygon class="cls-13" points="417.76 837.6 428.82 865.41 456.87 838.15 417.76 837.6"/><polygon class="cls-14" points="456.87 838.15 484.13 866.2 495.98 838.71 456.87 838.15"/><polygon class="cls-13" points="456.31 877.26 484.13 866.2 456.87 838.15 456.31 877.26"/><polygon class="cls-14" points="428.82 865.41 456.31 877.26 456.87 838.15 428.82 865.41"/><polygon class="cls-15" points="457.31 319.73 435.4 328.44 456.87 350.53 457.31 319.73"/><polygon class="cls-16" points="435.4 328.44 426.07 350.09 456.87 350.53 435.4 328.44"/><polygon class="cls-15" points="487.67 350.97 478.96 329.06 456.87 350.53 487.67 350.97"/><polygon class="cls-16" points="478.96 329.06 457.31 319.73 456.87 350.53 478.96 329.06"/><polygon class="cls-15" points="426.07 350.09 434.78 372 456.87 350.53 426.07 350.09"/><polygon class="cls-16" points="456.87 350.53 478.34 372.62 487.67 350.97 456.87 350.53"/><polygon class="cls-15" points="456.43 381.33 478.34 372.62 456.87 350.53 456.43 381.33"/><polygon class="cls-16" points="434.78 372 456.43 381.33 456.87 350.53 434.78 372"/><polygon class="cls-15" points="457.31 437.35 435.4 446.06 456.87 468.15 457.31 437.35"/><polygon class="cls-16" points="435.4 446.06 426.07 467.71 456.87 468.15 435.4 446.06"/><polygon class="cls-15" points="487.67 468.59 478.96 446.68 456.87 468.15 487.67 468.59"/><polygon class="cls-16" points="478.96 446.68 457.31 437.35 456.87 468.15 478.96 446.68"/><polygon class="cls-15" points="426.07 467.71 434.78 489.62 456.87 468.15 426.07 467.71"/><polygon class="cls-16" points="456.87 468.15 478.34 490.24 487.67 468.59 456.87 468.15"/><polygon class="cls-15" points="456.43 498.95 478.34 490.24 456.87 468.15 456.43 498.95"/><polygon class="cls-16" points="434.78 489.62 456.43 498.95 456.87 468.15 434.78 489.62"/><polygon class="cls-15" points="580.01 814.66 563.3 821.3 579.68 838.15 580.01 814.66"/><polygon class="cls-16" points="563.3 821.3 556.18 837.82 579.68 838.15 563.3 821.3"/><polygon class="cls-15" points="603.17 838.49 596.52 821.78 579.68 838.15 603.17 838.49"/><polygon class="cls-16" points="596.52 821.78 580.01 814.66 579.68 838.15 596.52 821.78"/><polygon class="cls-15" points="556.18 837.82 562.83 854.53 579.68 838.15 556.18 837.82"/><polygon class="cls-16" points="579.68 838.15 596.05 855 603.17 838.49 579.68 838.15"/><polygon class="cls-15" points="579.34 861.64 596.05 855 579.68 838.15 579.34 861.64"/><polygon class="cls-16" points="562.83 854.53 579.34 861.64 579.68 838.15 562.83 854.53"/><polygon class="cls-15" points="334.4 814.66 317.69 821.3 334.06 838.15 334.4 814.66"/><polygon class="cls-16" points="317.69 821.3 310.57 837.82 334.06 838.15 317.69 821.3"/><polygon class="cls-15" points="357.56 838.49 350.91 821.78 334.06 838.15 357.56 838.49"/><polygon class="cls-16" points="350.91 821.78 334.4 814.66 334.06 838.15 350.91 821.78"/><polygon class="cls-15" points="310.57 837.82 317.22 854.53 334.06 838.15 310.57 837.82"/><polygon class="cls-16" points="334.06 838.15 350.44 855 357.56 838.49 334.06 838.15"/><polygon class="cls-15" points="333.73 861.64 350.44 855 334.06 838.15 333.73 861.64"/><polygon class="cls-16" points="317.22 854.53 333.73 861.64 334.06 838.15 317.22 854.53"/><polygon class="cls-15" points="457.31 554.97 435.4 563.68 456.87 585.77 457.31 554.97"/><polygon class="cls-16" points="435.4 563.68 426.07 585.33 456.87 585.77 435.4 563.68"/><polygon class="cls-15" points="487.67 586.21 478.96 564.3 456.87 585.77 487.67 586.21"/><polygon class="cls-16" points="478.96 564.3 457.31 554.97 456.87 585.77 478.96 564.3"/><polygon class="cls-15" points="426.07 585.33 434.78 607.24 456.87 585.77 426.07 585.33"/><polygon class="cls-16" points="456.87 585.77 478.34 607.86 487.67 586.21 456.87 585.77"/><polygon class="cls-15" points="456.43 616.57 478.34 607.86 456.87 585.77 456.43 616.57"/><polygon class="cls-16" points="434.78 607.24 456.43 616.57 456.87 585.77 434.78 607.24"/></g></svg>