<svg xmlns="http://www.w3.org/2000/svg" width="64" height="64" viewBox="0 0 64 64"><linearGradient id="1f622-a" gradientUnits="userSpaceOnUse" x1="-211.919" y1="275.933" x2="-211.919" y2="276.933" gradientTransform="matrix(60 0 0 -60 12747.188 16617.938)"><stop offset="0" stop-color="#ffa027"/><stop offset=".272" stop-color="#ffc151"/><stop offset=".763" stop-color="#ffc93f"/><stop offset="1" stop-color="#ffe261"/></linearGradient><circle fill="url(#1f622-a)" cx="32" cy="32" r="30"/><path fill="#917524" d="M54.813 23.324c-3.188-4.168-8.718-7.32-12.318-7.269-.762.013-1.883 2.519-1.248 2.593 4.875.557 9.777 2.756 12.966 6.411.426.492 1.078-1.108.6-1.735zM9.189 23.328c3.186-4.172 8.715-7.322 12.316-7.271.76.01 1.883 2.52 1.248 2.592-4.875.56-9.779 2.756-12.966 6.412-.426.494-1.078-1.108-.598-1.733z"/><circle fill="#FFF" cx="43.5" cy="31" r="8"/><circle fill="#302C3B" cx="43.502" cy="31" r="5.333"/><ellipse fill="#FFF" cx="44.881" cy="34.971" rx="2.498" ry="2.891"/><ellipse fill="#FFF" cx="41.526" cy="31" rx="1.462" ry="1.689"/><circle fill="#FFF" cx="20.5" cy="31" r="8"/><circle fill="#302C3B" cx="20.502" cy="31" r="5.333"/><ellipse fill="#FFF" cx="21.881" cy="34.971" rx="2.498" ry="2.891"/><ellipse fill="#FFF" cx="18.526" cy="31" rx="1.462" ry="1.689"/><path fill="#302C3B" d="M22.77 50.408a17.287 17.287 0 0 1 18.464 0c.797.504.896-.459.647-.885-4.561-7.964-15.199-7.964-19.762 0-.246.426-.148 1.389.651.885z"/><radialGradient id="1f622-b" cx="-189.425" cy="246.248" r=".966" gradientTransform="matrix(10 0 0 -10 1905.367 2509.696)" gradientUnits="userSpaceOnUse"><stop offset="0" stop-color="#75d6ff"/><stop offset=".272" stop-color="#72d5fe"/><stop offset=".459" stop-color="#69d2fa"/><stop offset=".62" stop-color="#5acdf4"/><stop offset=".766" stop-color="#44c6ea"/><stop offset=".901" stop-color="#29bddf"/><stop offset="1" stop-color="#0fb4d4"/></radialGradient><path fill="url(#1f622-b)" d="M15.172 41c-3.174 4.688-4.998 9.004-4.998 12.545 0 3.012 2.24 5.455 5 5.455 2.762 0 5-2.443 5-5.455 0-3.541-1.879-7.933-5.002-12.545z"/></svg>