<svg xmlns="http://www.w3.org/2000/svg" width="64" height="64" viewBox="0 0 64 64"><linearGradient id="1f61e-a" gradientUnits="userSpaceOnUse" x1="32.001" y1="62" x2="32.001" y2="2.001"><stop offset="0" stop-color="#ffa027"/><stop offset=".272" stop-color="#ffc151"/><stop offset=".763" stop-color="#ffc93f"/><stop offset="1" stop-color="#ffe261"/></linearGradient><circle fill="url(#1f61e-a)" cx="32" cy="32" r="30"/><path fill="#302C3B" d="M22.59 52.131c5.295-3.813 13.525-3.813 18.822 0 .813.582 1.296-.047 1.037-.543-5.148-9.84-15.75-9.84-20.898 0-.259.496.224 1.125 1.039.543zM51.72 34.197c-5.105 1.934-11.756.152-15.211-4.076-.529-.646-1.057-.242-.955.215 2.029 9.064 10.598 11.361 16.887 4.523.316-.343.062-.957-.721-.662zM27.491 30.121c-3.455 4.229-10.105 6.01-15.211 4.076-.782-.295-1.037.318-.721.662 6.289 6.838 14.858 4.541 16.887-4.523.103-.457-.425-.861-.955-.215z"/></svg>