<svg xmlns="http://www.w3.org/2000/svg" width="64" height="64" viewBox="0 0 64 64"><linearGradient id="1f618-a" gradientUnits="userSpaceOnUse" x1="31.983" y1="62.188" x2="31.983" y2="2.187" gradientTransform="translate(.017 -.187)"><stop offset="0" stop-color="#ffa027"/><stop offset=".272" stop-color="#ffc151"/><stop offset=".763" stop-color="#ffc93f"/><stop offset="1" stop-color="#ffe261"/></linearGradient><circle fill="url(#1f618-a)" cx="32" cy="32" r="30"/><path fill="#302C3B" d="M42.684 49.794c1.273-1.89-2.314-2.603-2.82-5.466-.503-2.859 2.626-4.759.782-6.095-2.206-1.604-6.013.575-8.995-1.594.375 2.119 2.561 4.117 5.884 3.533 0 0-2.099 1.308-1.479 4.827.623 3.521 3.041 4.033 3.041 4.033-3.322.586-4.691 3.211-4.318 5.33 2.058-3.051 6.38-2.309 7.905-4.568zM22.012 24.731a4.501 4.501 0 0 1 5.213 3.648 4.5 4.5 0 1 1-5.213-3.648z"/><path fill="#917524" d="M51.604 15.588c-4.689-1.365-11.109-.282-14.197 1.108-.691.312-.324 2.995.254 2.726 3.915-1.82 9.775-2.61 14.315-2.125.643.069.378-1.49-.372-1.709zM8.947 24.351c1.999-4.854 6.521-9.329 10.016-10.211.736-.188 2.472 1.947 1.876 2.18-4.565 1.801-8.731 5.192-10.865 9.548-.284.588-1.328-.789-1.027-1.517z"/><path fill="#302C3B" d="M51.211 28.577c.555.057.699-.41.184-.657-3.906-1.87-7.607-1.649-7.691-2.122-.063-.362 2.328-2.61 6.326-4.441.472-.216.264-.717-.304-.609-8.854 1.682-13.22 7.669-13.111 8.284.094.534 6.863-1.249 14.596-.455z"/><radialGradient id="1f618-b" cx="-882.418" cy="879.443" r="3.635" gradientTransform="matrix(2.8617 -.5046 -.5364 -3.0419 3048.551 2269.038)" gradientUnits="userSpaceOnUse"><stop offset=".418" stop-color="#ff1c23"/><stop offset=".633" stop-color="#f8151a"/><stop offset=".986" stop-color="#e40201"/><stop offset="1" stop-color="#e30100"/></radialGradient><path fill="url(#1f618-b)" d="M51.813 40.256c-3.288-3.704-10.077-.834-9.157 4.383.618 3.5 4.294 5.268 11.571 9.313 5.456-6.292 8.308-9.209 7.689-12.709-.918-5.218-8.279-5.593-10.103-.987z"/></svg>