<svg xmlns="http://www.w3.org/2000/svg" width="64" height="64" viewBox="0 0 64 64"><linearGradient id="1f628-a" gradientUnits="userSpaceOnUse" x1="32.001" y1="62" x2="32.001" y2="2.001"><stop offset="0" stop-color="#ffa027"/><stop offset=".436" stop-color="#ffc548"/><stop offset="1" stop-color="#61b3ff"/></linearGradient><circle fill="url(#1f628-a)" cx="32" cy="32" r="30"/><path fill="#302C3B" d="M47.676 44c-1.715-3.594-5.881-6-15.676-6-9.793 0-13.959 2.406-15.674 6-.918 1.92.393 5 .393 5 1.637 3.883 1.408 5 15.283 5 13.857 0 13.643-1.117 15.279-5 0 0 1.309-3.08.395-5z"/><linearGradient id="1f628-b" gradientUnits="userSpaceOnUse" x1="20.604" y1="42" x2="43.397" y2="42"><stop offset="0" stop-color="#cfd7e6"/><stop offset=".037" stop-color="#dae0ec"/><stop offset=".126" stop-color="#eef1f6"/><stop offset=".215" stop-color="#fbfcfd"/><stop offset=".3" stop-color="#fff"/><stop offset=".7" stop-color="#fff"/><stop offset=".785" stop-color="#fbfcfd"/><stop offset=".874" stop-color="#eef1f6"/><stop offset=".963" stop-color="#dae0ec"/><stop offset="1" stop-color="#cfd7e6"/></linearGradient><path fill="url(#1f628-b)" d="M43.363 42.965a.792.792 0 0 0-.217-.797S40.601 40 32 40s-11.146 2.168-11.146 2.168a.792.792 0 0 0-.217.797l.195.563c.09.26.389.473.664.473h21.008a.754.754 0 0 0 .664-.473l.195-.563z"/><path fill="#014D87" d="M52.344 14.754c-4.158-3.201-10.314-4.814-13.779-3.832-.732.207-1.168 2.92-.535 2.826 4.854-.725 10.158.131 14.184 2.838.538.363.755-1.352.13-1.832zM11.656 14.756c4.156-3.203 10.313-4.816 13.779-3.834.73.207 1.166 2.922.533 2.826-4.854-.723-10.158.131-14.182 2.838-.54.365-.757-1.35-.13-1.83z"/><ellipse fill="#302C3B" cx="22" cy="26.5" rx="4.5" ry="6"/><ellipse fill="#302C3B" cx="42" cy="26.5" rx="4.5" ry="6"/><linearGradient id="1f628-c" gradientUnits="userSpaceOnUse" x1="32.001" y1="52.155" x2="32.001" y2="50.032"><stop offset="0" stop-color="#d63324"/><stop offset=".08" stop-color="#dc3f31"/><stop offset=".247" stop-color="#e75346"/><stop offset=".435" stop-color="#ee6155"/><stop offset=".657" stop-color="#f3695d"/><stop offset="1" stop-color="#f46c60"/></linearGradient><path fill="url(#1f628-c)" d="M25 51.789c.939.488 13.059.488 14 0 0 0-3.5-3.082-7.002-1.082-3.498-2-6.998 1.082-6.998 1.082z"/></svg>