<svg xmlns="http://www.w3.org/2000/svg" width="64" height="64" viewBox="0 0 64 64"><linearGradient id="1f62c-a" gradientUnits="userSpaceOnUse" x1="-162" y1="108" x2="-162" y2="168" gradientTransform="matrix(1 0 0 -1 194 170)"><stop offset="0" stop-color="#ffa027"/><stop offset=".272" stop-color="#ffc151"/><stop offset=".763" stop-color="#ffc93f"/><stop offset="1" stop-color="#ffe261"/></linearGradient><circle fill="url(#1f62c-a)" cx="32" cy="32" r="30"/><path fill="#302C3B" d="M49.139 37.206c-5.251-2.848-29.333-3.033-34.351 0-4.099 2.477-3.328 8.035 0 10.859 4.713 4.002 29.313 3.822 34.351 0 3.446-2.613 4.179-8.593 0-10.859z"/><linearGradient id="1f62c-b" gradientUnits="userSpaceOnUse" x1="16" y1="39.5" x2="48" y2="39.5"><stop offset="0" stop-color="#cfd7e6"/><stop offset=".037" stop-color="#dae0ec"/><stop offset=".126" stop-color="#eef1f6"/><stop offset=".215" stop-color="#fbfcfd"/><stop offset=".3" stop-color="#fff"/><stop offset=".7" stop-color="#fff"/><stop offset=".785" stop-color="#fbfcfd"/><stop offset=".874" stop-color="#eef1f6"/><stop offset=".963" stop-color="#dae0ec"/><stop offset="1" stop-color="#cfd7e6"/></linearGradient><path fill="url(#1f62c-b)" d="M46.506 38.037C43.996 37.659 38.689 37 32 37c-6.688 0-11.994.659-14.504 1.037-1.479.22-1.568.759-1.467 1.519.063.451.158 1 .303 1.588.162.652.291.824 1.447.835 2.221.028 26.223.028 28.443 0 1.156-.011 1.281-.183 1.447-.835a14.18 14.18 0 0 0 .299-1.588c.108-.76.014-1.299-1.462-1.519z"/><linearGradient id="1f62c-c" gradientUnits="userSpaceOnUse" x1="1200.332" y1="728.832" x2="1230.333" y2="728.832" gradientTransform="rotate(180 623.666 387.666)"><stop offset="0" stop-color="#cfd7e6"/><stop offset=".037" stop-color="#dae0ec"/><stop offset=".126" stop-color="#eef1f6"/><stop offset=".215" stop-color="#fbfcfd"/><stop offset=".3" stop-color="#fff"/><stop offset=".7" stop-color="#fff"/><stop offset=".785" stop-color="#fbfcfd"/><stop offset=".874" stop-color="#eef1f6"/><stop offset=".963" stop-color="#dae0ec"/><stop offset="1" stop-color="#cfd7e6"/></linearGradient><path fill="url(#1f62c-c)" d="M18.4 47.964C20.754 48.341 25.729 49 32 49c6.27 0 11.244-.659 13.598-1.036 1.385-.22 1.469-.76 1.375-1.52a16.381 16.381 0 0 0-.285-1.588c-.15-.653-.271-.824-1.355-.835-2.082-.028-24.584-.028-26.666 0-1.084.011-1.201.182-1.357.835a14.825 14.825 0 0 0-.279 1.588c-.103.76-.015 1.3 1.369 1.52z"/><ellipse fill="#302C3B" cx="22" cy="24.5" rx="4.5" ry="6"/><ellipse fill="#302C3B" cx="41.999" cy="24.5" rx="4.5" ry="6"/></svg>