<svg xmlns="http://www.w3.org/2000/svg" width="64" height="64" viewBox="0 0 64 64"><linearGradient id="1f92a-a" gradientUnits="userSpaceOnUse" x1="31.431" y1="49.172" x2="31.431" y2="-10.829" gradientTransform="translate(.57 12.829)"><stop offset="0" stop-color="#ffa027"/><stop offset=".272" stop-color="#ffc151"/><stop offset=".763" stop-color="#ffc93f"/><stop offset="1" stop-color="#ffe261"/></linearGradient><circle fill="url(#1f92a-a)" cx="32" cy="32" r="30"/><path fill="#FFF" d="M28 25.422c0 4.693-3.81 8.502-8.5 8.5a8.502 8.502 0 0 1-8.5-8.5c0-4.691 3.807-8.5 8.5-8.5 4.69 0 8.5 3.808 8.5 8.5zM51 20c0 5.523-4.48 10-10 10-5.522 0-10-4.477-10-10 0-5.52 4.478-10 10-10 5.52 0 10 4.48 10 10z"/><circle fill="#302C3B" cx="22" cy="26" r="3.5"/><path fill="#302C3B" d="M42.5 19c0 2.486-2.018 4.5-4.5 4.5-2.488 0-4.5-2.014-4.5-4.5s2.012-4.5 4.5-4.5c2.482 0 4.5 2.014 4.5 4.5zM51.717 34.402c-.155-.879-.869-1.887-2.405-1.908-3.94-.053-9.702.195-16.965 1.477h-.002c-7.256 1.279-12.76 3.018-16.444 4.414-1.435.545-1.762 1.736-1.606 2.615 1.402 7.957 8.991 14.877 21.523 12.666h.002c12.535-2.211 17.299-11.309 15.897-19.264z"/><linearGradient id="1f92a-b" gradientUnits="userSpaceOnUse" x1="42.191" y1="-62.037" x2="74.191" y2="-62.037" gradientTransform="rotate(-10.003 625.526 131.012)"><stop offset="0" stop-color="#cfd7e6"/><stop offset=".037" stop-color="#dae0ec"/><stop offset=".126" stop-color="#eef1f6"/><stop offset=".215" stop-color="#fbfcfd"/><stop offset=".3" stop-color="#fff"/><stop offset=".7" stop-color="#fff"/><stop offset=".785" stop-color="#fbfcfd"/><stop offset=".874" stop-color="#eef1f6"/><stop offset=".963" stop-color="#dae0ec"/><stop offset="1" stop-color="#cfd7e6"/></linearGradient><path fill="url(#1f92a-b)" d="M47.332 35.428c-2.536.064-7.877.336-14.465 1.496-6.587 1.162-11.697 2.734-14.104 3.541-1.417.475-1.411 1.02-1.18 1.75.14.434.329.959.574 1.512.271.615.43.762 1.57.572 2.191-.359 25.828-4.525 28.01-4.939 1.138-.213 1.23-.402 1.28-1.074.041-.604.041-1.162.02-1.615-.026-.769-.213-1.282-1.705-1.243z"/><linearGradient id="1f92a-c" gradientUnits="userSpaceOnUse" x1="277.422" y1="-204.069" x2="277.422" y2="-187.296" gradientTransform="matrix(.9852 -.4431 .4102 .912 -150.717 353.944)"><stop offset="0" stop-color="#b32e24"/><stop offset=".01" stop-color="#b63026"/><stop offset=".112" stop-color="#d14136"/><stop offset=".224" stop-color="#e54f42"/><stop offset=".35" stop-color="#f4594b"/><stop offset=".5" stop-color="#fc5e50"/><stop offset=".739" stop-color="#ff6052"/></linearGradient><path fill="url(#1f92a-c)" d="M31.981 51.053c.3.662.801 1.779 1.338 2.973 2.935 6.525 8.009 8.174 12.453 6.178 4.44-2 6.571-6.895 3.639-13.416-.54-1.197-1.037-2.311-1.34-2.975-1.754-3.898-8.998 1.5-8.998 1.5s-8.847 1.841-7.092 5.74z"/><path fill="#B81B1B" d="M37.84 45.625l5.518 9.209-3.234-10.236c-.644.41-1.05.715-1.05.715s-.502.103-1.234.312z"/></svg>